<svg xmlns="http://www.w3.org/2000/svg"
    viewBox="0 0 500 500"><g id="freepik--background-complete--inject-22">
    <path d="M447,44.45a16.88,16.88,0,0,1,4.1-1.78l.85-4.06,6.85-.12,1,4a16.81,16.81,0,0,1,4.16,1.63l3.47-2.27,4.93,4.77-2.15,3.54a16.91,16.91,0,0,1,1.79,4.1l4.05.84.12,6.86-4,1a17,17,0,0,1-1.64,4.16l2.27,3.46L468,75.54l-3.54-2.15a16.88,16.88,0,0,1-4.1,1.78l-.85,4.06-6.86.12-1-4a16.81,16.81,0,0,1-4.16-1.63L444,76l-4.93-4.76,2.15-3.55a16.58,16.58,0,0,1-1.79-4.1l-4.06-.84-.12-6.86,4-1a16.76,16.76,0,0,1,1.64-4.16l-2.27-3.46,4.76-4.94L447,44.45Zm3.66,9.14A7.36,7.36,0,1,0,461,53.4,7.36,7.36,0,0,0,450.61,53.59Z" style="fill:#f5f5f5"></path><path d="M77.57,45.2a24.21,24.21,0,0,0,9.15,41.25l8.65,1h0A24.2,24.2,0,1,0,77.57,45.2Z" style="fill:#fff"></path><path d="M107.68,43.56a1.77,1.77,0,0,1-.34-.18l-1-.58a10.89,10.89,0,0,0-1.61-.88,17.47,17.47,0,0,0-2.29-1,22.84,22.84,0,0,0-6.66-1.48A23.55,23.55,0,0,0,71.24,56.69,23.85,23.85,0,0,0,70.56,60a25.67,25.67,0,0,0,.15,6.92,26.44,26.44,0,0,0,.88,3.45,22.86,22.86,0,0,0,3.34,6.49A23.25,23.25,0,0,0,87,85.43a23,23,0,0,0,7.23,1,26.15,26.15,0,0,0,3.55-.3,27.28,27.28,0,0,0,3.4-.86,21.42,21.42,0,0,0,6.06-3,23.63,23.63,0,0,0,8.23-28.89,22.72,22.72,0,0,0-3.59-5.8,17.37,17.37,0,0,0-1.7-1.83,12.45,12.45,0,0,0-1.36-1.23l-.87-.72a2.1,2.1,0,0,1-.29-.27,1.61,1.61,0,0,1,.32.22l.91.68a10.75,10.75,0,0,1,1.41,1.19,18.08,18.08,0,0,1,1.76,1.81,22.49,22.49,0,0,1,3.71,5.82A23.94,23.94,0,0,1,115.72,73a24.15,24.15,0,0,1-8.15,9.72,25.39,25.39,0,0,1-2.94,1.76,23.89,23.89,0,0,1-3.26,1.32,28,28,0,0,1-3.47.89,27.5,27.5,0,0,1-3.65.31,23,23,0,0,1-7.4-1,25.56,25.56,0,0,1-6.92-3.39,25.85,25.85,0,0,1-5.48-5.42A23.35,23.35,0,0,1,71,70.52a27.83,27.83,0,0,1-.9-3.54,25.41,25.41,0,0,1-.3-3.57A24.07,24.07,0,0,1,70,59.9a24.57,24.57,0,0,1,.7-3.35A23.92,23.92,0,0,1,95.84,39.1a22.57,22.57,0,0,1,6.72,1.59,16.4,16.4,0,0,1,2.28,1.07,10.27,10.27,0,0,1,1.59.94l.94.63A2,2,0,0,1,107.68,43.56Z" style="fill:#e0e0e0"></path><path d="M111.43,89.62a4.46,4.46,0,1,1-6.05,1.81A4.47,4.47,0,0,1,111.43,89.62Z" style="fill:#fff"></path><path d="M111.43,89.62s-.38-.14-1.06-.28a4.49,4.49,0,0,0-2.82.33,4.28,4.28,0,0,0-2.39,3.26,4.2,4.2,0,0,0,6.93,3.75,4.28,4.28,0,0,0,1.42-3.79,4.49,4.49,0,0,0-1.27-2.54c-.49-.49-.84-.68-.81-.73a2.4,2.4,0,0,1,1,.56,4.42,4.42,0,0,1,1.52,2.65,4.65,4.65,0,0,1-1.47,4.25,4.71,4.71,0,0,1-7.81-4.23,4.67,4.67,0,0,1,2.75-3.55,4.45,4.45,0,0,1,3.05-.18A2.43,2.43,0,0,1,111.43,89.62Z" style="fill:#e0e0e0"></path><path d="M106.2,58.66a11.48,11.48,0,1,0-16.67,9.91c0,1.36-.08,2.9-.08,2.9l10.06.29s.1-1.62.17-3.07A11.49,11.49,0,0,0,106.2,58.66Z" style="fill:#f5f5f5"></path><path d="M106.2,58.66a.82.82,0,0,1,0,.23c0,.14,0,.36,0,.65a12.06,12.06,0,0,1-.49,2.47,11.54,11.54,0,0,1-5.95,6.85l.11-.16c-.05,1-.1,2-.16,3.08V72h-.2l-10.06-.26h-.25v-.25c0-.91,0-1.89.08-2.89l.14.23a11.72,11.72,0,0,1,0-20.94,12.71,12.71,0,0,1,3.28-1.07A12.35,12.35,0,0,1,96,46.71a11.58,11.58,0,0,1,5.4,2.06A11.41,11.41,0,0,1,106,55.61a7.1,7.1,0,0,1,.21,1.3,5.84,5.84,0,0,1,.06,1,4.37,4.37,0,0,1,0,.79,19.38,19.38,0,0,0-.42-3,11.41,11.41,0,0,0-4.6-6.59,11.29,11.29,0,0,0-5.24-1.93,11.81,11.81,0,0,0-3.13.1,12,12,0,0,0-3.14,1,11.3,11.3,0,0,0-5,5,11.16,11.16,0,0,0-1,7.44,11.32,11.32,0,0,0,5.89,7.66l.15.07v.16c0,1-.06,2-.09,2.9l-.24-.25,10.06.32-.21.2c.06-1.07.13-2.1.19-3.07v-.12l.11,0a11.48,11.48,0,0,0,5.91-6.57A15.84,15.84,0,0,0,106.2,58.66Z" style="fill:#e0e0e0"></path><path d="M94.51,50.07A2,2,0,0,0,93.18,49a3.6,3.6,0,0,0-2.73.23,8.69,8.69,0,0,0-4.88,5.51,5.34,5.34,0,0,0-.07,3.42,1.86,1.86,0,0,0,1.1,1c1.28.41,2.35-.82,2.79-2S90,54.8,90.78,54a11.63,11.63,0,0,1,2.51-1.49C94.12,52,94.86,51,94.51,50.07Z" style="fill:#fff"></path><path d="M99.13,49.76a1.67,1.67,0,0,0-3.13.43A1.7,1.7,0,0,0,96.7,52a1.62,1.62,0,0,0,1.9-.13A2,2,0,0,0,99.13,49.76Z" style="fill:#fff"></path><path d="M96.84,71.12a7.27,7.27,0,0,1-.42-1.37c-.22-.89-.52-2.19-.8-3.82-.14-.81-.28-1.7-.4-2.67a5.1,5.1,0,0,1,0-1.56,2.05,2.05,0,0,1,.92-1.46A1.74,1.74,0,0,1,97,60a1.24,1.24,0,0,1,.94.37,2.47,2.47,0,0,1,.55,1.82,4.21,4.21,0,0,1-1.87,3.27,4,4,0,0,1-6-2.52,1.64,1.64,0,0,1,.12-.92,1,1,0,0,1,.83-.54,1.37,1.37,0,0,1,1.27,1.07,13.05,13.05,0,0,1,.26,2.73,12.64,12.64,0,0,1-.48,3.9,5.71,5.71,0,0,1-.41,1c-.12.21-.19.32-.21.31s.22-.47.43-1.36a13.93,13.93,0,0,0,.3-3.83,13.58,13.58,0,0,0-.3-2.61,1,1,0,0,0-.85-.74c-.38,0-.57.46-.49.94a3.4,3.4,0,0,0,2,2.33A3.27,3.27,0,0,0,96.37,65,3.67,3.67,0,0,0,98,62.13a2,2,0,0,0-.39-1.45,1,1,0,0,0-1.24,0,1.58,1.58,0,0,0-.72,1.14,4.51,4.51,0,0,0,0,1.42c.1,1,.22,1.85.33,2.66.24,1.63.48,2.93.64,3.84A7.46,7.46,0,0,1,96.84,71.12Z" style="fill:#e0e0e0"></path><g id="freepik--2ggvdetif--inject-22"><path d="M92.08,77.39a3,3,0,0,1,.64.6.73.73,0,0,0,.53.27l2,0a.66.66,0,0,0,.58-.28,1.25,1.25,0,0,1,.71-.52Z" style="fill:#e0e0e0"></path></g><path d="M90.05,71.69s.38,3.21.52,4.43a1.5,1.5,0,0,0,.81,1.17,1.41,1.41,0,0,0,.57.14l4.43.12s1.16,0,1.45-.87.93-4.75.93-4.75Z" style="fill:#ebebeb"></path><rect x="94.04" y="71.86" width="0.46" height="8.16" rx="0.22" transform="translate(16.03 168.3) rotate(-88.59)" style="fill:#e0e0e0"></rect><path d="M98.12,76.26a.27.27,0,0,0,.15-.06.23.23,0,0,0,.06-.19.2.2,0,0,0-.15-.19c-.42,0-1,0-1.81,0l-6-.14a.18.18,0,0,0-.16.08.16.16,0,0,0,0,.09v.09a.2.2,0,0,0,.12.12,1.23,1.23,0,0,0,.2,0l.84,0,1.58,0,2.68.07,1.81.06.49,0h-.49l-1.81,0L93,76.17l-1.58,0-.84,0h-.1a.25.25,0,0,1-.12,0,.24.24,0,0,1-.17-.29.28.28,0,0,1,0-.12.27.27,0,0,1,.22-.11l6,.16c.76,0,1.37,0,1.8.06a.24.24,0,0,1,.18.22.28.28,0,0,1-.08.2A.19.19,0,0,1,98.12,76.26Z" style="fill:#e0e0e0"></path><rect x="94.06" y="70.7" width="0.46" height="8.48" rx="0.22" transform="translate(17.06 167.36) rotate(-88.59)" style="fill:#e0e0e0"></rect><path d="M98.31,75.27a.29.29,0,0,0,.16-.07.23.23,0,0,0,0-.19.21.21,0,0,0-.17-.19l-1.88,0-6.19-.15a.2.2,0,0,0-.16.09.32.32,0,0,0,0,.09.28.28,0,0,0,0,.09.19.19,0,0,0,.14.12h.21l.87,0,1.64,0,2.79.08,1.87.06.51,0h-.51l-1.87,0L93,75.17l-1.64,0-.87,0h-.23a.28.28,0,0,1-.19-.16.57.57,0,0,1,0-.13.19.19,0,0,1,0-.12.24.24,0,0,1,.22-.12l6.19.16,1.88.06a.25.25,0,0,1,.2.21.31.31,0,0,1-.07.21A.2.2,0,0,1,98.31,75.27Z" style="fill:#e0e0e0"></path><rect x="94.09" y="69.6" width="0.46" height="8.69" rx="0.22" transform="translate(18.08 166.41) rotate(-88.59)" style="fill:#e0e0e0"></rect><path d="M98.44,74.28a.25.25,0,0,0,.16-.08.24.24,0,0,0,.06-.2.21.21,0,0,0-.2-.17l-1.92,0-6.34-.14a.18.18,0,0,0-.16.08.3.3,0,0,0,0,.1.28.28,0,0,0,0,.09.18.18,0,0,0,.14.11h.23l.89,0,1.68,0,2.85.07,1.92.06.52,0h.14s0,0,0,0h-.7l-1.92,0L93,74.17l-1.68,0-.9,0h-.23A.29.29,0,0,1,90,74a.3.3,0,0,1,0-.13.25.25,0,0,1,0-.12.26.26,0,0,1,.23-.13l6.33.17,1.92.06a.24.24,0,0,1,0,.48Z" style="fill:#e0e0e0"></path><rect x="94.12" y="68.43" width="0.46" height="9.03" rx="0.22" transform="translate(19.1 165.47) rotate(-88.59)" style="fill:#e0e0e0"></rect><path d="M98.64,73.28a.18.18,0,0,0,.16-.07.29.29,0,0,0,0-.21.22.22,0,0,0-.22-.17l-2,0-6.58-.15a.16.16,0,0,0-.16.09.23.23,0,0,0,0,.2.19.19,0,0,0,.16.09h.23l.93,0,1.74,0,3,.08,2,.06.54,0h-.54l-2,0-3-.06-1.75,0-.92,0h-.24a.26.26,0,0,1-.22-.14.31.31,0,0,1,0-.13.32.32,0,0,1,0-.14.28.28,0,0,1,.24-.13l6.57.17,2,.07a.22.22,0,0,1,.24.18.25.25,0,0,1-.06.23.19.19,0,0,1-.12.06A.07.07,0,0,1,98.64,73.28Z" style="fill:#263238"></path><path d="M89,68.93c0,.08.13,2,.19,3a1.21,1.21,0,0,0,.52.9l.44.31,8.56.24.46-.28a1.18,1.18,0,0,0,.57-.89l.34-3Z" style="fill:#e0e0e0"></path><path d="M165.29,41.74A31.26,31.26,0,0,1,173,38.37l1.59-7.67,13-.23,1.86,7.61a31.82,31.82,0,0,1,7.86,3.09l6.55-4.29,9.32,9-4.06,6.69a31.26,31.26,0,0,1,3.37,7.75l7.67,1.6.23,13-7.61,1.87a32,32,0,0,1-3.09,7.86L214,91.14l-9,9.33-6.69-4.06a31.6,31.6,0,0,1-7.75,3.36l-1.6,7.67-12.95.23-1.87-7.61A32,32,0,0,1,166.26,97l-6.54,4.29-9.33-9,4.06-6.69a31.6,31.6,0,0,1-3.36-7.75l-7.67-1.6-.23-12.95,7.61-1.87a31.9,31.9,0,0,1,3.09-7.85L149.6,47l9-9.32,6.69,4.06ZM172.2,59a13.9,13.9,0,1,0,19.65-.34A13.91,13.91,0,0,0,172.2,59Z" style="fill:#ebebeb"></path><path d="M296,322.58a47,47,0,0,1,11.48-5l2.36-11.36L329,305.9l2.76,11.27a46.69,46.69,0,0,1,11.64,4.58l9.7-6.36,13.8,13.33-6,9.91a47.19,47.19,0,0,1,5,11.48l11.35,2.36.34,19.19-11.27,2.76a46.69,46.69,0,0,1-4.58,11.64l6.36,9.7-13.33,13.8-9.91-6a46.64,46.64,0,0,1-11.48,5L331,419.89l-19.19.34L309.06,409a47.47,47.47,0,0,1-11.64-4.58l-9.69,6.35-13.81-13.33,6-9.91a47.12,47.12,0,0,1-5-11.47l-11.35-2.37-.34-19.18,11.27-2.77a46.84,46.84,0,0,1,4.58-11.64l-6.36-9.69,13.33-13.81,9.91,6Zm10.23,25.56a20.59,20.59,0,1,0,29.11-.51A20.59,20.59,0,0,0,306.21,348.14Z" style="fill:#ebebeb"></path><path d="M404.68,386.48a25.18,25.18,0,0,1,6.06-2.63l1.24-6,10.13-.18,1.45,5.95a24.8,24.8,0,0,1,6.15,2.41l5.11-3.35,7.29,7L438.94,395a25.35,25.35,0,0,1,2.63,6.06l6,1.24.17,10.13-5.94,1.45a24.68,24.68,0,0,1-2.42,6.15l3.36,5.11-7,7.29-5.24-3.17a25.11,25.11,0,0,1-6,2.63l-1.25,6L413,438l-1.46-5.95a24.61,24.61,0,0,1-6.14-2.42L400.32,433,393,426l3.17-5.23a25,25,0,0,1-2.63-6.06l-6-1.25-.18-10.12,5.95-1.46a24.73,24.73,0,0,1,2.41-6.14l-3.35-5.12,7-7.28,5.23,3.17Zm5.4,13.49a10.86,10.86,0,1,0,15.36-.27A10.86,10.86,0,0,0,410.08,400Z" style="fill:#ebebeb"></path><path d="M211.7,386.15a26.53,26.53,0,0,1,6.43-2.8l1.33-6.37,10.76-.19,1.55,6.32a26.57,26.57,0,0,1,6.53,2.57l5.44-3.57,7.74,7.48-3.37,5.56a26.59,26.59,0,0,1,2.8,6.44l6.37,1.32.18,10.77-6.31,1.54a26.65,26.65,0,0,1-2.57,6.53l3.56,5.44-7.47,7.75-5.56-3.37a26.73,26.73,0,0,1-6.44,2.79l-1.33,6.37-10.76.19L219,434.6A26.18,26.18,0,0,1,212.5,432l-5.44,3.57-7.74-7.48,3.37-5.56a26,26,0,0,1-2.79-6.44l-6.37-1.32L193.34,404l6.32-1.55a26.38,26.38,0,0,1,2.56-6.53l-3.56-5.44,7.48-7.74,5.56,3.37Zm5.73,14.33a11.55,11.55,0,1,0,16.33-.28A11.55,11.55,0,0,0,217.43,400.48Z" style="fill:#f5f5f5"></path><path d="M236.56,26.2a16,16,0,0,1,3.85-1.67l.79-3.81,6.43-.11.93,3.78a15.81,15.81,0,0,1,3.9,1.53l3.25-2.13,4.62,4.47-2,3.32A15.92,15.92,0,0,1,260,35.42l3.8.8.12,6.42-3.78.93a15.66,15.66,0,0,1-1.53,3.9l2.13,3.25-4.47,4.63-3.32-2A15.6,15.6,0,0,1,249.09,55l-.79,3.81-6.43.11L241,55.15a16.08,16.08,0,0,1-3.9-1.54l-3.25,2.13-4.63-4.47,2-3.32a15.57,15.57,0,0,1-1.68-3.84l-3.8-.79-.11-6.43,3.77-.93a15.31,15.31,0,0,1,1.54-3.9l-2.13-3.25,4.46-4.62,3.32,2ZM240,34.76a6.9,6.9,0,1,0,9.76-.17A6.91,6.91,0,0,0,240,34.76Z" style="fill:#f5f5f5"></path></g><g id="freepik--Floor--inject-22"><path d="M467.16,469.68c0,.14-97.68.26-218.15.26s-218.17-.12-218.17-.26,97.66-.26,218.17-.26S467.16,469.53,467.16,469.68Z" style="fill:#263238"></path></g><g id="freepik--Table--inject-22"><rect x="173.39" y="64.72" width="282.3" height="282.3" style="fill:#fff"></rect><rect x="207.02" y="251.95" width="30.43" height="30.64" style="fill:#FF725E"></rect><rect x="392.95" y="251.95" width="31.43" height="30.64" style="fill:#FF725E"></rect><rect x="392.95" y="314.52" width="31.43" height="30.64" style="fill:#FF725E"></rect><rect x="424.38" y="188.16" width="30.43" height="31.66" style="fill:#FF725E"></rect><rect x="330.43" y="219.83" width="30.43" height="31.21" style="fill:#FF725E"></rect><rect x="267.93" y="188.5" width="31.22" height="31.44" style="fill:#FF725E"></rect><rect x="299.15" y="125.84" width="31.22" height="31.44" style="fill:#FF725E"></rect><rect x="362.52" y="64.05" width="30.43" height="30.64" style="fill:#FF725E"></rect><rect x="207.02" y="94.69" width="30.18" height="30.64" style="fill:#FF725E"></rect><text transform="translate(184.95 88.95) scale(0.99 1)" style="font-size:23.571880340576172px;fill:#263238;font-family:Montserrat-SemiBold, Montserrat;font-weight:600">5</text><text transform="translate(337.52 181.53) scale(0.99 1)" style="font-size:23.571880340576172px;fill:#263238;font-family:Montserrat-SemiBold, Montserrat;font-weight:600">5</text><text transform="translate(428.99 305.37) scale(0.99 1)"
    style="font-size:23.571880340576172px;fill:#263238;font-family:Montserrat-SemiBold, Montserrat;font-weight:600">5</text><text transform="translate(213.16 88.95) scale(0.99 1)" style="font-size:23.571880340576172px;fill:#263238;font-family:Montserrat-SemiBold, Montserrat;font-weight:600">4</text><text transform="translate(182.67 305.92) scale(0.99 1)" style="font-size:23.571880340576172px;fill:#263238;font-family:Montserrat-SemiBold, Montserrat;font-weight:600">4</text><text transform="translate(430.31 212.72) scale(0.99 1)" style="font-size:23.571880340576172px;fill:#263238;font-family:Montserrat-SemiBold, Montserrat;font-weight:600">4</text><text transform="translate(277.42 181.53) scale(0.99 1)" style="font-size:23.571880340576172px;fill:#263238;font-family:Montserrat-SemiBold, Montserrat;font-weight:600">4</text><text transform="translate(369.9 339.65) scale(0.99 1)" style="font-size:23.571880340576172px;fill:#263238;font-family:Montserrat-SemiBold, Montserrat;font-weight:600">4</text><text transform="translate(243.48 244.57) scale(0.99 1)" style="font-size:23.571880340576172px;fill:#263238;font-family:Montserrat-SemiBold, Montserrat;font-weight:600">4</text><text transform="translate(218.02 117.56) scale(0.99 1)" style="font-size:23.571880340576172px;fill:#263238;font-family:Montserrat-SemiBold, Montserrat;font-weight:600">1</text><text transform="translate(403.76 147.97) scale(0.99 1)" style="font-size:23.571880340576172px;fill:#263238;font-family:Montserrat-SemiBold, Montserrat;font-weight:600">1</text><text transform="translate(247.24 213.66) scale(0.99 1)" style="font-size:23.571880340576172px;fill:#263238;font-family:Montserrat-SemiBold, Montserrat;font-weight:600">1</text><text transform="translate(375.3 274.56) scale(0.99 1)" style="font-size:23.571880340576172px;fill:#263238;font-family:Montserrat-SemiBold, Montserrat;font-weight:600">1</text><text transform="translate(244.75 116.66) scale(0.99 1)" style="font-size:23.571880340576172px;fill:#263238;font-family:Montserrat-SemiBold, Montserrat;font-weight:600">9</text><text transform="translate(335.21 305.99) scale(0.99 1)" style="font-size:23.571880340576172px;fill:#263238;font-family:Montserrat-SemiBold, Montserrat;font-weight:600">9</text><text transform="translate(215.28 339.77) scale(0.99 1)" style="font-size:23.571880340576172px;fill:#263238;font-family:Montserrat-SemiBold, Montserrat;font-weight:600">9</text><text transform="translate(402.29 274.78) scale(0.99 1)" style="font-size:23.571880340576172px;fill:#263238;font-family:Montserrat-SemiBold, Montserrat;font-weight:600">9</text><text transform="translate(184.78 181.69) scale(0.99 1)" style="font-size:23.571880340576172px;fill:#263238;font-family:Montserrat-SemiBold, Montserrat;font-weight:600">9</text><text transform="translate(277.79 148.48) scale(0.99 1)" style="font-size:23.571880340576172px;fill:#263238;font-family:Montserrat-SemiBold, Montserrat;font-weight:600">3</text><text transform="translate(337.65 116.73) scale(0.99 1)" style="font-size:23.571880340576172px;fill:#263238;font-family:Montserrat-SemiBold, Montserrat;font-weight:600">7</text><text transform="translate(303.61 339.33) scale(0.99 1)" style="font-size:23.571880340576172px;fill:#263238;font-family:Montserrat-SemiBold, Montserrat;font-weight:600">7</text><text transform="translate(306.86 88.95) scale(0.99 1)" style="font-size:23.571880340576172px;fill:#263238;font-family:Montserrat-SemiBold, Montserrat;font-weight:600">2</text><text transform="translate(243.34 305.92) scale(0.99 1)" style="font-size:23.571880340576172px;fill:#263238;font-family:Montserrat-SemiBold, Montserrat;font-weight:600">2</text><text transform="translate(372.39 147.47) scale(0.99 1)" style="font-size:23.571880340576172px;fill:#263238;font-family:Montserrat-SemiBold, Montserrat;font-weight:600">2</text><text transform="translate(337.79 242.7) scale(0.99 1)" style="font-size:23.571880340576172px;fill:#263238;font-family:Montserrat-SemiBold, Montserrat;font-weight:600">2</text><text transform="translate(243.77 306.67) scale(0.99 1)" style="font-size:23.571880340576172px;fill:#263238;font-family:Montserrat-SemiBold, Montserrat;font-weight:600">2</text><text transform="translate(403.69 181.65) scale(0.99 1)" style="font-size:23.571880340576172px;fill:#263238;font-family:Montserrat-SemiBold, Montserrat;font-weight:600">2</text><text transform="translate(371.92 88.62) scale(0.99 1)" style="font-size:23.571880340576172px;fill:#263238;font-family:Montserrat-SemiBold, Montserrat;font-weight:600">8</text><text transform="translate(403.23 243.58) scale(0.99 1)" style="font-size:23.571880340576172px;fill:#263238;font-family:Montserrat-SemiBold, Montserrat;font-weight:600">8</text><text transform="translate(430.71 88.95) scale(0.99 1)" style="font-size:23.571880340576172px;fill:#263238;font-family:Montserrat-SemiBold, Montserrat;font-weight:600">6</text><text transform="translate(371.4 212.39) scale(0.99 1)" style="font-size:23.571880340576172px;fill:#263238;font-family:Montserrat-SemiBold, Montserrat;font-weight:600">6
</text><text transform="translate(184.56 243.91) scale(0.99 1)"
    style="font-size:23.571880340576172px;fill:#263238;font-family:Montserrat-SemiBold, Montserrat;font-weight:600">6</text><text transform="translate(213.87 274.1) scale(0.99 1)" style="font-size:23.571880340576172px;fill:#263238;font-family:Montserrat-SemiBold, Montserrat;font-weight:600">6</text><text transform="translate(432.42 116.49) scale(0.99 1)" style="font-size:23.571880340576172px;fill:#263238;font-family:Montserrat-SemiBold, Montserrat;font-weight:600">3</text><text transform="translate(305.55 243.24) scale(0.99 1)" style="font-size:23.571880340576172px;fill:#263238;font-family:Montserrat-SemiBold, Montserrat;font-weight:600">3</text><path d="M455.33,344.38H186.39c-3.62,0-7.31-.19-10.93,0H175l1.87,1.87V75.42c0-3.64.21-7.35,0-11,0-.16,0-.32,0-.48L175,65.83H443.92c3.63,0,7.32.19,10.94,0,.15,0,.31,0,.47,0L453.45,64V334.79c0,3.66-.07,7.33,0,11,0,.16,0,.32,0,.48a1.88,1.88,0,0,0,3.75,0V75.42c0-3.66.07-7.33,0-11V64a1.9,1.9,0,0,0-1.87-1.88H186.39c-3.64,0-7.29-.06-10.93,0-.16,0-.32,0-.47,0A1.9,1.9,0,0,0,173.11,64V334.79c0,3.66-.07,7.33,0,11,0,.16,0,.32,0,.48a1.9,1.9,0,0,0,1.88,1.88H443.92c3.65,0,7.3.07,10.94,0h.47A1.88,1.88,0,0,0,455.33,344.38Z" style="fill:#263238"></path><path d="M266.36,65.46V344.79a1.88,1.88,0,0,0,3.75,0V65.46a1.88,1.88,0,0,0-3.75,0Z" style="fill:#263238"></path><path d="M359.91,65.46V344.79a1.88,1.88,0,0,0,3.75,0V65.46a1.88,1.88,0,0,0-3.75,0Z" style="fill:#263238"></path><path d="M175.15,159.67h277.4a1.88,1.88,0,0,0,0-3.75H175.15a1.88,1.88,0,0,0,0,3.75Z" style="fill:#263238"></path><path d="M175.15,252.93h277.4a1.88,1.88,0,0,0,0-3.75H175.15a1.88,1.88,0,0,0,0,3.75Z" style="fill:#263238"></path><path d="M207,345.54c-.15,0-.26-62.87-.26-140.4s.11-140.42.26-140.42.26,62.86.26,140.42S207.16,345.54,207,345.54Z" style="fill:#263238"></path><path d="M237.2,345.54c-.15,0-.26-62.87-.26-140.4s.11-140.42.26-140.42.26,62.86.26,140.42S237.34,345.54,237.2,345.54Z" style="fill:#263238"></path><path d="M299.15,345.54c-.14,0-.26-62.87-.26-140.4s.12-140.42.26-140.42.26,62.86.26,140.42S299.29,345.54,299.15,345.54Z" style="fill:#263238"></path><path d="M330.42,345.54c-.15,0-.26-62.87-.26-140.4s.11-140.42.26-140.42.26,62.86.26,140.42S330.56,345.54,330.42,345.54Z" style="fill:#263238"></path><path d="M393,345.54c-.15,0-.26-62.87-.26-140.4s.11-140.42.26-140.42.26,62.86.26,140.42S393.09,345.54,393,345.54Z" style="fill:#263238"></path><path d="M424.38,345.54c-.15,0-.26-62.87-.26-140.4s.11-140.42.26-140.42.26,62.86.26,140.42S424.52,345.54,424.38,345.54Z" style="fill:#263238"></path><path d="M453.74,94.69c0,.14-62.05.26-138.58.26s-138.59-.12-138.59-.26,62-.26,138.59-.26S453.74,94.54,453.74,94.69Z" style="fill:#263238"></path><path d="M453.74,125.63c0,.14-62.05.26-138.58.26s-138.59-.12-138.59-.26,62-.26,138.59-.26S453.74,125.49,453.74,125.63Z" style="fill:#263238"></path><path d="M453.74,188.16c0,.15-62.05.26-138.58.26s-138.59-.11-138.59-.26,62-.26,138.59-.26S453.74,188,453.74,188.16Z" style="fill:#263238">

</path><path d="M453.74,219.83c0,.14-62.05.26-138.58.26s-138.59-.12-138.59-.26,62-.27,138.59-.27S453.74,219.68,453.74,219.83Z" style="fill:#263238"></path><path d="M453.74,282.59c0,.14-62.05.26-138.58.26s-138.59-.12-138.59-.26,62-.26,138.59-.26S453.74,282.45,453.74,282.59Z" style="fill:#263238"></path><path d="M453.74,314.52c0,.14-62.05.26-138.58.26s-138.59-.12-138.59-.26,62-.26,138.59-.26S453.74,314.37,453.74,314.52Z" style="fill:#263238"></path></g><g id="freepik--Plant--inject-22"><path d="M358.1,405.68c-.08.1-.69-.27-1.38-.83s-1.19-1.07-1.11-1.16.69.28,1.38.83S358.17,405.59,358.1,405.68Z" style="fill:#263238"></path><path d="M376.85,377.65a21.43,21.43,0,0,0-.64-7.79c-.82-2.49-2.74-4.78-5.31-5.31-2.93-.61-5.93,1.24-7.57,3.74s-2.21,5.54-2.69,8.49A299.34,299.34,0,0,0,357,438.42l12,1.68C374.22,418.59,375.9,399.78,376.85,377.65Z" style="fill:#455a64"></path><path d="M369.24,364.46l-.06.19-.2.54c-.19.51-.46,1.2-.79,2.07-.17.45-.39.94-.57,1.5s-.38,1.17-.58,1.82-.44,1.35-.68,2.08-.4,1.55-.62,2.38a104.88,104.88,0,0,0-2.31,11.87c-.65,4.5-1.08,9.5-1.41,14.75-.61,10.5-.71,20-1,26.93-.13,3.45-.25,6.24-.38,8.17-.06.93-.11,1.67-.15,2.21,0,.23,0,.42-.05.58s0,.19,0,.19,0-.06,0-.19V439c0-.55,0-1.29.07-2.22.08-1.93.15-4.72.24-8.17.19-6.89.24-16.43.85-26.95.34-5.26.78-10.26,1.45-14.78A99.49,99.49,0,0,1,365.45,375c.23-.83.45-1.62.65-2.38l.71-2.08c.22-.65.42-1.25.62-1.81s.42-1,.6-1.49c.37-.86.66-1.54.88-2l.23-.53C369.2,364.51,369.23,364.45,369.24,364.46Z" style="fill:#263238"></path><path d="M370.35,364.46a8.77,8.77,0,0,1,1.46,2.48,18.37,18.37,0,0,1,1.1,7.76c-.32,6.63-.92,15.75-1.7,25.83s-1.68,19.2-2.38,25.79c-.36,3.29-.66,5.95-.89,7.79-.11.89-.2,1.6-.27,2.12,0,.22-.06.4-.08.55s0,.18,0,.18v-.19c0-.15,0-.33,0-.55.05-.52.11-1.23.19-2.13.19-1.88.44-4.54.75-7.8.64-6.6,1.47-15.71,2.26-25.79s1.43-19.21,1.82-25.81a18.85,18.85,0,0,0-.94-7.68A17.18,17.18,0,0,0,370.35,364.46Z" style="fill:#263238"></path><path d="M378.66,395.49a6.34,6.34,0,0,1-2.27-.58,6.67,6.67,0,0,1-2.13-1,6.34,6.34,0,0,1,2.27.58A6.67,6.67,0,0,1,378.66,395.49Z" style="fill:#263238"></path><path d="M380.1,383.28a7.6,7.6,0,0,1-2.16,1.2,7.41,7.41,0,0,1-2.33.81,14.33,14.33,0,0,1,4.49-2Z" style="fill:#263238"></path><path d="M379.36,373.3a3.83,3.83,0,0,1-1.79.09,3.77,3.77,0,0,1-1.76-.33,7.62,7.62,0,0,1,3.55.24Z" style="fill:#263238"></path><path d="M367,366.91c-.1.06-.62-.59-1.17-1.46a4.21,4.21,0,0,1-.81-1.69c.1-.06.63.59,1.17,1.46A4.21,4.21,0,0,1,367,366.91Z" style="fill:#263238"></path><path d="M362.89,372.94c0,.12-.76.2-1.7.18s-1.69-.13-1.69-.25.76-.2,1.7-.18S362.9,372.82,362.89,372.94Z" style="fill:#263238"></path><path d="M360,385a4.12,4.12,0,0,1-1.79-.49c-.95-.38-1.68-.78-1.63-.89a4.18,4.18,0,0,1,1.79.49C359.27,384.5,360,384.9,360,385Z" style="fill:#263238"></path><path d="M359.65,395.16c0,.11-.66.35-1.53.53s-1.59.24-1.61.12.65-.35,1.52-.53S359.62,395,359.65,395.16Z" style="fill:#263238"></path><path d="M358.26,411.75c0,.12-.7.35-1.62.51s-1.67.21-1.69.09.7-.34,1.62-.51A3.66,3.66,0,0,1,358.26,411.75Z" style="fill:#263238"></path><path d="M357.35,420.92c0,.1-.55.53-1.35.95s-1.5.69-1.55.58.54-.53,1.35-.95S357.29,420.81,357.35,420.92Z" style="fill:#263238"></path><path d="M364.83,431.32c-.1.06-.63-.67-1.18-1.63a4.6,4.6,0,0,1-.8-1.83c.1-.06.63.66,1.17,1.62A4.91,4.91,0,0,1,364.83,431.32Z" style="fill:#263238"></path><path d="M367,414c.08.09-.51.8-1.31,1.59s-1.53,1.36-1.61,1.28.5-.79,1.31-1.59S366.9,414,367,414Z" style="fill:#263238"></path><path d="M366.51,405c-.09.08-.63-.37-1.22-1s-1-1.21-.9-1.29.63.37,1.22,1S366.6,404.89,366.51,405Z" style="fill:#263238"></path><path d="M368,393.38c.09.08-.4.77-1.09,1.54s-1.32,1.33-1.41,1.26.4-.77,1.09-1.55S367.91,393.3,368,393.38Z" style="fill:#263238"></path><path d="M368.83,385c-.08.09-.77-.45-1.53-1.2s-1.3-1.42-1.22-1.5.77.45,1.53,1.2S368.91,384.89,368.83,385Z" style="fill:#263238"></path><path d="M370.47,373.6a4.2,4.2,0,0,1-.76,1.71c-.53.88-1,1.54-1.14,1.48a4.18,4.18,0,0,1,.77-1.7C369.86,374.21,370.37,373.54,370.47,373.6Z" style="fill:#263238"></path><path d="M373.56,363.07a4.07,4.07,0,0,1-.68,1.7c-.48.89-.95,1.56-1.05,1.5s.2-.81.68-1.7S373.45,363,373.56,363.07Z" style="fill:#263238"></path><path d="M377.06,367.86c.05.1-.43.44-1.07.75s-1.2.47-1.25.36.42-.44,1.07-.75S377,367.75,377.06,367.86Z" style="fill:#263238"></path><path d="M377.15,405.69a7.31,7.31,0,0,1-4.38-1.87,11.87,11.87,0,0,1,2.2.9A12.23,12.23,0,0,1,377.15,405.69Z" style="fill:#263238"></path><path d="M375.71,413.7c0,.11-.69.35-1.61.53a3.68,3.68,0,0,1-1.69.11c0-.12.7-.36,1.61-.53S375.69,413.58,375.71,413.7Z" style="fill:#263238"></path><path d="M374,427.44a4.71,4.71,0,0,1-1.82-1.61,4.64,4.64,0,0,1-1.15-2.14,13.59,13.59,0,0,1,1.48,1.88A13.08,13.08,0,0,1,374,427.44Z" style="fill:#263238"></path><path d="M354.68,433.72c-.07-.09.41-.63,1.09-1.21s1.29-1,1.37-.89-.41.63-1.09,1.21S354.76,433.81,354.68,433.72Z" style="fill:#263238"></path><path d="M349.14,403.73c-.78-2.43-2.24-5.27-4.8-5.31a4.25,4.25,0,0,0-3.6,2.41,8.85,8.85,0,0,0-1,4.41,114.78,114.78,0,0,0,5.5,31.93h9.36A111.16,111.16,0,0,0,349.14,403.73Z" style="fill:#455a64"></path><path d="M332.21,388.39a10.4,10.4,0,0,0-9.74-8.32c-4.14.73-5.75,4.8-6.24,9s.81,8.33,2.08,12.33l12.33,38.54,11.64-1.27C338.6,421.43,336.48,405.47,332.21,388.39Z" style="fill:#455a64"></path><path d="M344.34,398.42a8.85,8.85,0,0,0-.79,1.32,8.59,8.59,0,0,0-.44,4.14c.18,1.78.38,3.93.68,6.27s.73,4.93,1.26,7.62c1.05,5.38,2.25,10.2,3,13.72.39,1.76.68,3.19.86,4.18.08.45.14.83.19,1.14s.06.4,0,.4a1.89,1.89,0,0,1-.12-.38c-.07-.31-.17-.68-.27-1.13-.25-1-.59-2.44-1-4.14-.83-3.5-2.07-8.31-3.14-13.71-.52-2.69-.94-5.28-1.22-7.65-.15-1.18-.25-2.31-.35-3.36s-.2-2-.25-2.94a8.64,8.64,0,0,1,.59-4.22A3.77,3.77,0,0,1,344.34,398.42Z" style="fill:#263238"></path><path d="M322.63,379.74a15.64,15.64,0,0,0-1.4,1.89,13.32,13.32,0,0,0-1.78,6.1,28.48,28.48,0,0,0,1.44,9.37c1,3.47,2.15,7.27,3.33,11.26,2.32,8,4.42,15.21,6,20.49.73,2.6,1.33,4.71,1.76,6.23.19.7.34,1.27.46,1.69a3.82,3.82,0,0,1,.13.6,2.5,2.5,0,0,1-.22-.57l-.53-1.68-1.89-6.18c-1.57-5.27-3.71-12.49-6.08-20.46-1.17-4-2.28-7.8-3.29-11.27a27.84,27.84,0,0,1-1.37-9.5,13.05,13.05,0,0,1,1.94-6.17A7.22,7.22,0,0,1,322.63,379.74Z" style="fill:#263238"></path><path d="M339.74,437.4a4.93,4.93,0,0,1-.26-.56c-.15-.38-.4-.92-.66-1.64-.56-1.43-1.27-3.54-2-6.19s-1.46-5.83-2.17-9.39-1.41-7.48-2.19-11.58-1.71-8-2.76-11.44a63.22,63.22,0,0,0-3.39-9,49,49,0,0,0-3.14-5.66c-.4-.65-.77-1.12-1-1.46a3.11,3.11,0,0,1-.33-.52,3.09,3.09,0,0,1,.4.47c.24.32.62.78,1.05,1.42a43.26,43.26,0,0,1,3.27,5.62,61.09,61.09,0,0,1,3.5,9,115.53,115.53,0,0,1,2.8,11.47c.77,4.11,1.5,8,2.16,11.6s1.38,6.74,2.08,9.39,1.36,4.76,1.86,6.2c.24.73.46,1.28.59,1.67A2.75,2.75,0,0,1,339.74,437.4Z" style="fill:#263238"></path><path d="M318.52,399.45c0,.11-.6.36-1.41.56s-1.49.26-1.52.15.61-.37,1.42-.57S318.49,399.33,318.52,399.45Z" style="fill:#263238"></path><path d="M317.29,391.5a14.47,14.47,0,0,1-3.94.15,4.07,4.07,0,0,1,2-.37A4,4,0,0,1,317.29,391.5Z" style="fill:#263238"></path><path d="M318.6,384.24c-.08.09-.71-.32-1.41-.92s-1.21-1.15-1.14-1.24.71.32,1.42.91S318.68,384.15,318.6,384.24Z" style="fill:#263238"></path><path d="M322.15,377.52c.12,0,.09.59.07,1.28s0,1.25-.14,1.27-.31-.55-.29-1.29S322,377.49,322.15,377.52Z" style="fill:#263238"></path><path d="M329.41,380.68c.1.07-.18.65-.63,1.29s-.89,1.1-1,1,.19-.64.64-1.28S329.32,380.62,329.41,380.68Z" style="fill:#263238"></path><path d="M334.12,388.87c.05.11-.55.46-1.34.78s-1.47.49-1.51.38.56-.46,1.35-.78S334.08,388.76,334.12,388.87Z" style="fill:#263238"></path><path d="M337,397.29a3.56,3.56,0,0,1-1.84.81,3.6,3.6,0,0,1-2,.07,7.25,7.25,0,0,1,1.92-.49A7.64,7.64,0,0,1,337,397.29Z" style="fill:#263238"></path><path d="M323.86,394.9c-.11,0,0-.62.18-1.3s.48-1.21.59-1.17,0,.61-.18,1.3S324,394.93,323.86,394.9Z" style="fill:#263238"></path><path d="M325.69,405.47a4,4,0,0,1,.53-1.75c.4-.92.81-1.63.92-1.58a4,4,0,0,1-.53,1.75C326.21,404.81,325.8,405.52,325.69,405.47Z" style="fill:#263238"></path><path d="M321.17,408.36c-.05.12-.79-.09-1.68-.36s-1.61-.54-1.59-.66a3.21,3.21,0,0,1,1.72.25A3.27,3.27,0,0,1,321.17,408.36Z" style="fill:#263238"></path><path d="M323.78,417c.06.1-.43.58-1.12,1.06s-1.29.81-1.36.71.43-.57,1.11-1.06S323.71,416.89,323.78,417Z" style="fill:#263238"></path><path d="M325.87,425.58c0,.11-.59.36-1.38.56s-1.45.25-1.48.13.59-.36,1.38-.55S325.84,425.46,325.87,425.58Z" style="fill:#263238"></path><path d="M337.21,404.47c.06.1-.46.52-1.23.81s-1.45.32-1.47.21.59-.34,1.32-.61S337.15,404.37,337.21,404.47Z" style="fill:#263238"></path><path d="M338.83,417.84c-.05.11-.67-.08-1.4-.42s-1.27-.71-1.22-.82.68.09,1.4.43S338.88,417.73,338.83,417.84Z" style="fill:#263238"></path><path d="M341.7,427.41a4.36,4.36,0,0,1-1.86-.5,4.46,4.46,0,0,1-1.7-.89,4.44,4.44,0,0,1,1.86.49A4.56,4.56,0,0,1,341.7,427.41Z" style="fill:#263238"></path><path d="M326.33,434.9c-.06-.1.7-.62,1.58-1.31s1.57-1.32,1.66-1.23-.47.84-1.39,1.56S326.38,435,326.33,434.9Z" style="fill:#263238"></path><path d="M333.89,430c-.12,0-.29-.63-.58-1.38s-.59-1.33-.49-1.4.58.44.89,1.25S334,430,333.89,430Z" style="fill:#263238"></path><path d="M331.88,418.53c-.06.1-.55-.14-1.09-.52s-.91-.77-.84-.87.56.14,1.09.52S332,418.44,331.88,418.53Z" style="fill:#263238"></path><path d="M349.52,400.5c.07.09-.41.56-1.06,1.05s-1.25.8-1.32.7.4-.56,1.06-1.05S349.45,400.4,349.52,400.5Z" style="fill:#263238"></path><path d="M352.18,407.76c0,.12-.74.28-1.66.17s-1.62-.41-1.58-.51.75,0,1.63.09S352.17,407.64,352.18,407.76Z" style="fill:#263238"></path><path d="M340.75,409.39c0,.12-.66.36-1.55.42s-1.61-.09-1.6-.21.71-.16,1.57-.22A4.28,4.28,0,0,1,340.75,409.39Z" style="fill:#263238"></path><path d="M341.73,402.52c0,.12-.7.14-1.46-.22s-1.21-.89-1.13-1,.61.27,1.3.58S341.75,402.4,341.73,402.52Z" style="fill:#263238"></path><path d="M353.16,415.56c-.06.1-.78-.23-1.6-.75s-1.43-1-1.36-1.11.77.24,1.59.75S353.22,415.46,353.16,415.56Z" style="fill:#263238"></path><rect x="320.08" y="435.95" width="60.95" height="10.8" style="fill:#FF725E"></rect><polygon points="324.27 437.4 331.68 469.68 368.01 469.68 376.12 437.4 324.27 437.4" style="fill:#FF725E"></polygon><path d="M381,446.77c0,.12-13.75.21-30.7.21s-30.71-.09-30.71-.21,13.75-.21,30.71-.21S381,446.65,381,446.77Z" style="fill:#263238"></path><path d="M347.1,409.63c-.1.06-.51-.42-.93-1.08s-.66-1.25-.56-1.32.51.43.93,1.09S347.2,409.57,347.1,409.63Z" style="fill:#263238"></path><path d="M347.13,418.32c-.12,0,0-.77.31-1.64s.62-1.54.73-1.5,0,.77-.32,1.64S347.24,418.36,347.13,418.32Z" style="fill:#263238"></path><path d="M350.1,427.45c-.11.05-.56-.68-1-1.63a4.66,4.66,0,0,1-.63-1.82c.11-.05.57.68,1,1.63A4.26,4.26,0,0,1,350.1,427.45Z" style="fill:#263238"></path><path d="M343.66,434.79c-.09-.08.28-.65.82-1.27s1-1,1.13-1-.27.65-.81,1.27S343.75,434.86,343.66,434.79Z" style="fill:#263238"></path><path d="M342.31,421.46c0,.11-.6.11-1.31,0s-1.25-.31-1.23-.43.6-.11,1.31,0S342.33,421.34,342.31,421.46Z" style="fill:#263238"></path></g><g id="freepik--speech-bubble--inject-22"><path d="M89.8,140.62l-4.2-5.39a24.67,24.67,0,1,0-2.74,8.39v0Z" style="fill:#fff"></path><path d="M89.8,140.62l-.42.21-1.31.59-5.17,2.32a.12.12,0,0,1-.15-.06.09.09,0,0,1,0-.07h0l.2.07a24.66,24.66,0,0,1-8.07,8.93,24.12,24.12,0,0,1-3.33,1.86c-.6.29-1.24.5-1.87.75a13.2,13.2,0,0,1-2,.64,24.51,24.51,0,0,1-8.9.8,24.79,24.79,0,0,1-21.36-32,24.57,24.57,0,0,1,6.25-10.31,25.25,25.25,0,0,1,9.8-6,24.83,24.83,0,0,1,31,15,24.46,24.46,0,0,1,1.26,11.91l0-.08,3.09,4.08.78,1c.17.23.26.34.25.34s-.11-.12-.3-.36l-.84-1-3.14-3.94a.11.11,0,0,1,0-.08A24.49,24.49,0,0,0,53.64,108.8a25,25,0,0,0-9.6,5.9,24.35,24.35,0,0,0-2.36,31.84,24.35,24.35,0,0,0,25.91,8.93,13.82,13.82,0,0,0,2-.61c.63-.25,1.26-.46,1.85-.73a23.61,23.61,0,0,0,3.3-1.82,24.8,24.8,0,0,0,8.07-8.74.12.12,0,0,1,.15,0,.13.13,0,0,1,0,.13h0l-.15-.13L88,141.37l1.35-.56Z" style="fill:#263238"></path><text transform="translate(52.69 141.95)" style="font-size:27.2962703704834px;fill:#263238;font-family:Montserrat-SemiBold, Montserrat;font-weight:600">8</text></g><g id="freepik--Character--inject-22"><path d="M77.44,235.41c-7.09,5.6-18.35,5.41-25.15-.44s-6.57-15.12.53-20.72,18.35-5.41,25.15.43S84.53,229.81,77.44,235.41Z" style="fill:#FF725E"></path><path d="M54,466l16.87-28.73L82.52,230.87l-35.76-.65L35.49,435.34l13.72,30.49A2.87,2.87,0,0,0,54,466Z" style="fill:#FF725E"></path><path d="M35.49,435.34c1.52-.78,3.45-.49,4.07.9.92-2.63,4-4.63,7.33-4.74s6.6,1.66,7.79,4.2a10.58,10.58,0,0,1,8.68-2.94,9.41,9.41,0,0,1,7.38,4.78L54,466.1a2.82,2.82,0,0,1-4.74-.19Z" style="fill:#ffbf9d"></path><path d="M59.4,457.29s-4.14-6.45-14.78-1.08l5.44,12.1a1.66,1.66,0,0,0,2.8.11Z" style="fill:#263238"></path><path d="M54.68,435.7,65,231.85l17.38,0L70.89,437.29l-.15.25a7.39,7.39,0,0,0-2.31-2.78,10.53,10.53,0,0,0-4.8-2,10.92,10.92,0,0,0-6.36,1A8.84,8.84,0,0,0,54.68,435.7Z" style="opacity:0.30000000000000004"></path><path d="M39.56,436.24,51.17,230.37H46.56l-11.07,205a3.29,3.29,0,0,1,3.77.4A2.65,2.65,0,0,1,39.56,436.24Z" style="opacity:0.30000000000000004"></path><path d="M82.48,232.88l-35.79-2a.83.83,0,0,1-.85-.81l.77-9.08a.87.87,0,0,1,1-.7l35.78,2a.82.82,0,0,1,.85.81l-.76,9.08A.87.87,0,0,1,82.48,232.88Z" style="fill:#e0e0e0"></path><path d="M82.48,232.88s.09,0,.25,0a.94.94,0,0,0,.56-.36c.17-.22.1-.57.15-1s.06-.86.09-1.38c.08-1,.17-2.31.28-3.77.06-.74.11-1.53.18-2.36,0-.21,0-.42.05-.64a1,1,0,0,0-.05-.58.75.75,0,0,0-.48-.34c-.21,0-.54,0-.8,0l-35.14-2a.66.66,0,0,0-.69.42c-.05.28-.07.68-.1,1L46.6,224c-.11,1.38-.23,2.74-.34,4.07-.06.66-.12,1.33-.17,2a.55.55,0,0,0,.41.59.78.78,0,0,0,.21,0l.29,0,.59,0,4.56.27,15.79.95,10.64.67,2.9.2.75.07a1.53,1.53,0,0,1,.25,0h-.26l-.75,0-2.9-.13-10.65-.54-15.8-.86-4.57-.25-.58,0h-.3a2.29,2.29,0,0,1-.36-.07,1,1,0,0,1-.7-1c0-.65.1-1.31.16-2,.11-1.33.22-2.69.34-4.07,0-.68.11-1.38.17-2.07,0-.37,0-.67.11-1.09a1.17,1.17,0,0,1,1.22-.73l35.12,2.07a6.92,6.92,0,0,1,.87.07,1,1,0,0,1,.7.5,1.11,1.11,0,0,1,.06.71c0,.22,0,.43,0,.64-.08.83-.15,1.61-.22,2.35l-.36,3.77c0,.52-.1,1-.14,1.38s0,.75-.21,1a1,1,0,0,1-.64.35A.66.66,0,0,1,82.48,232.88Z" style="fill:#263238"></path><path d="M51.62,220.69a26.83,26.83,0,0,1-.06,5.18A26.66,26.66,0,0,1,51,231a26.83,26.83,0,0,1,.06-5.18A26.66,26.66,0,0,1,51.62,220.69Z" style="fill:#263238"></path><path d="M65.29,221.11a38.67,38.67,0,0,1,.12,5.36,38.6,38.6,0,0,1-.14,5.36,39,39,0,0,1,0-10.72Z" style="fill:#263238"></path><path d="M80.54,232.71a27.69,27.69,0,0,1,0-5.25,29,29,0,0,1,.48-5.24,27.6,27.6,0,0,1,0,5.25A28.91,28.91,0,0,1,80.54,232.71Z" style="fill:#263238"></path><path d="M218.32,198.08l-7,5.46s-19.33,31.38-21.83,34c-1.59,1.62-4.18,3.18-9.3,3.1C173.73,240.49,157,220,157,220l9.5-20.26,15.27,16.71,22.54-25.17Z" style="fill:#ffbf9d"></path><path d="M217,199.55a37.65,37.65,0,0,1,3.66-3.65l1.88-1.94a2.25,2.25,0,0,1,.2.51,2,2,0,0,0,.46.91,1.61,1.61,0,0,0,1.83,0,3.87,3.87,0,0,0,.24-6.67,2.9,2.9,0,0,0-.49-1c-1.54-2.05-5.23-1.83-5.23-1.83l.57-.78s2.53-1.52,6.66,1.19a3,3,0,0,0,2.1.49,1.51,1.51,0,0,0,1.13-.66c.63-1,.06-1.73-2.49-3.46s-5.6-2.55-7.54-1.87a20.11,20.11,0,0,0-2.67,1.09s4.68-7.29,5-7.76c.81-1.37.87-2.88,0-3.5-.55-.4-1.54-.5-2.53,1.06-.85,1.36-11.33,14.11-11.33,14.11l-4.31,5.92Z" style="fill:#ffbf9d"></path><path d="M205.57,192a2.24,2.24,0,0,0,2.62.21c.85-.41,1.52-1.11,2.33-1.58,2.42-1.43,5.7-.78,8-2.32.33-.22.66-.59.52-.95s-.57-.41-.93-.44l-9.3-.53" style="fill:#ffbf9d"></path><path d="M208.86,186.36a4,4,0,0,1,1,0c.65,0,1.59,0,2.75.07l4.07.18,1.18.05a1.88,1.88,0,0,1,1.34.4.79.79,0,0,1,.08.88,1.65,1.65,0,0,1-.52.56,6.37,6.37,0,0,1-1.22.62,36.6,36.6,0,0,1-4.92,1,6.82,6.82,0,0,0-2,.71c-.57.32-1.06.73-1.54,1.06a3.27,3.27,0,0,1-2.69.71c-.67-.19-.87-.58-.85-.58a2.92,2.92,0,0,0,.89.38,3.22,3.22,0,0,0,2.43-.81,18.74,18.74,0,0,1,1.54-1.14,7.28,7.28,0,0,1,2.09-.81,41.39,41.39,0,0,0,4.84-1,5.74,5.74,0,0,0,1.11-.55c.32-.22.49-.54.34-.68s-.57-.2-1-.22l-1.18-.08-4.06-.28c-1.16-.09-2.1-.18-2.74-.25A3.21,3.21,0,0,1,208.86,186.36Z" style="fill:#ff9a6c"></path><path d="M219.38,185.86a3.81,3.81,0,0,1,1.37-1.1,2.9,2.9,0,0,1,1.85-.12,7.28,7.28,0,0,1,2.16,1,12.2,12.2,0,0,0,2.18,1.12,3.83,3.83,0,0,0,2,.2,1.53,1.53,0,0,0,1.1-.82c.13-.3.13-.49.11-.49s-.07.17-.23.43a1.44,1.44,0,0,1-1,.64,3.8,3.8,0,0,1-1.87-.26,13.62,13.62,0,0,1-2.11-1.12,7.44,7.44,0,0,0-2.27-1,3,3,0,0,0-2,.21,2.76,2.76,0,0,0-1.05.87C219.41,185.68,219.36,185.85,219.38,185.86Z" style="fill:#ff9a6c"></path><path d="M222.52,173.6a8.17,8.17,0,0,0-.94,1.44l-2.18,3.53-2.22,3.49a9.91,9.91,0,0,0-.89,1.48,8.08,8.08,0,0,0,1.09-1.34c.63-.86,1.45-2.08,2.32-3.45s1.59-2.65,2.09-3.59A7.87,7.87,0,0,0,222.52,173.6Z" style="fill:#ff9a6c"></path><path d="M220,188.55a1.93,1.93,0,0,0,.53.11,1.62,1.62,0,0,1,1.16.65.86.86,0,0,1,0,.85,5,5,0,0,1-.67.9,2,2,0,0,0-.55,1.26,1.66,1.66,0,0,0,.75,1.28,1.87,1.87,0,0,0,1.46.23,2.37,2.37,0,0,0,1.18-.68,7.31,7.31,0,0,0,1.15-1.89,4.21,4.21,0,0,0,.39-1.44,1,1,0,0,0-.07-.54,4,4,0,0,0-.06.52,5.33,5.33,0,0,1-.48,1.36,8.26,8.26,0,0,1-1.16,1.78,1.86,1.86,0,0,1-2.22.38,1.33,1.33,0,0,1-.6-1,1.62,1.62,0,0,1,.46-1.05,4.6,4.6,0,0,0,.67-1,1.11,1.11,0,0,0,0-1.09,1.65,1.65,0,0,0-1.35-.66A1.47,1.47,0,0,0,220,188.55Z" style="fill:#ff9a6c"></path><path d="M222.69,193.53s-.15.12-.22.44a1.49,1.49,0,0,0,.38,1.29,2,2,0,0,0,1.91.51,3.31,3.31,0,0,0,1.93-1.47,4,4,0,0,0,.61-2.35,3.74,3.74,0,0,0-.65-1.87,3.49,3.49,0,0,0-.93-1c-.26-.18-.42-.24-.43-.22a6.51,6.51,0,0,1,1.16,1.3A3.65,3.65,0,0,1,227,192a3.76,3.76,0,0,1-.58,2.15,3,3,0,0,1-1.72,1.35,1.76,1.76,0,0,1-1.66-.37,1.45,1.45,0,0,1-.42-1.1C222.62,193.69,222.72,193.54,222.69,193.53Z" style="fill:#ff9a6c"></path><path d="M214.56,195.24s-.21-.24-.7-.43a3.29,3.29,0,0,0-2.11,0l.2.23a11,11,0,0,0,.46-1.08,7.28,7.28,0,0,0,.41-4,18.18,18.18,0,0,1-.74,3.89c-.13.37-.27.73-.42,1.05l-.17.35.37-.12a3.35,3.35,0,0,1,1.94-.08C214.28,195.13,214.54,195.28,214.56,195.24Z" style="fill:#ff9a6c"></path><path d="M222.56,182.87c-.09,0-.14.7.33,1.38s1.13.89,1.16.8-.48-.4-.88-1S222.66,182.86,222.56,182.87Z" style="fill:#ff9a6c"></path><path d="M182.23,224.74a16,16,0,0,1-.41-4.1,17.16,17.16,0,0,1,.12-4.12,15.76,15.76,0,0,1,.4,4.1A16.88,16.88,0,0,1,182.23,224.74Z" style="fill:#ff9a6c"></path><path d="M113.49,182.63,111,139.87c-1-10.61,4.38-20,15-20.72h1a19.06,19.06,0,0,1,19.11,17.41c.79,9.2,1.56,19.39,1.52,24.33-.06,10.23-10.28,11.88-10.28,11.88s.23,6.21.37,9.21L130,193.77l0,.61Z" style="fill:#ffbf9d"></path><path d="M137.3,172.77A24.8,24.8,0,0,1,124,168.91s3.25,7.67,13.46,6.69Z" style="fill:#ff9a6c"></path><path d="M143.22,145.52a1.46,1.46,0,0,1-1.4,1.48,1.4,1.4,0,0,1-1.51-1.31,1.46,1.46,0,0,1,1.4-1.48A1.4,1.4,0,0,1,143.22,145.52Z" style="fill:#263238"></path><path d="M143.91,141.09c-.18.19-1.29-.62-2.87-.61s-2.72.81-2.89.62.1-.43.6-.8a4,4,0,0,1,2.31-.73,3.87,3.87,0,0,1,2.29.72C143.83,140.66,144,141,143.91,141.09Z" style="fill:#263238"></path><path d="M129.21,146.18a1.47,1.47,0,0,1-1.4,1.48,1.39,1.39,0,0,1-1.51-1.31,1.45,1.45,0,0,1,1.39-1.48A1.4,1.4,0,0,1,129.21,146.18Z" style="fill:#263238"></path><path d="M128.5,141.54c-.18.19-1.29-.62-2.86-.6s-2.72.8-2.89.61.09-.43.6-.8a4.11,4.11,0,0,1,2.31-.73,3.83,3.83,0,0,1,2.28.73C128.42,141.11,128.59,141.46,128.5,141.54Z" style="fill:#263238"></path><path d="M134.21,153.59a10.12,10.12,0,0,1,2.55-.48c.4,0,.78-.12.85-.4a2.07,2.07,0,0,0-.28-1.19l-1.2-3c-1.68-4.35-2.89-7.92-2.71-8s1.67,3.4,3.34,7.74c.41,1.07.79,2.09,1.16,3.07a2.34,2.34,0,0,1,.22,1.57,1,1,0,0,1-.66.59,2.6,2.6,0,0,1-.68.1A10.58,10.58,0,0,1,134.21,153.59Z" style="fill:#263238"></path><path d="M129,136.62c-.21.41-1.74,0-3.59,0s-3.41.27-3.6-.14c-.08-.2.23-.56.88-.89a6,6,0,0,1,2.76-.56,6,6,0,0,1,2.72.7C128.78,136.05,129.07,136.43,129,136.62Z" style="fill:#263238"></path><path d="M144,136.47c-.32.36-1.6,0-3.14,0s-2.84.3-3.15-.07c-.13-.18.06-.54.63-.89a5.23,5.23,0,0,1,5.07,0C143.91,135.92,144.09,136.29,144,136.47Z" style="fill:#263238"></path><path d="M111.83,147.44c-.18-.07-7-2-6.78,4.95s7.23,5.29,7.23,5.09S111.83,147.44,111.83,147.44Z" style="fill:#ffbf9d"></path><path d="M110.05,154.91s-.12.09-.32.19a1.19,1.19,0,0,1-.91.05,3,3,0,0,1-1.5-2.65,4.13,4.13,0,0,1,.27-1.75,1.43,1.43,0,0,1,.89-1,.63.63,0,0,1,.73.3c.1.2.06.34.1.35s.14-.13.07-.41a.75.75,0,0,0-.29-.43.9.9,0,0,0-.68-.15,1.73,1.73,0,0,0-1.23,1.13,4.31,4.31,0,0,0-.35,2,3.18,3.18,0,0,0,1.89,3,1.31,1.31,0,0,0,1.11-.23C110,155.08,110.07,154.92,110.05,154.91Z" style="fill:#ff9a6c"></path><path d="M159.73,126.7a1.65,1.65,0,0,0-.82-.94,5,5,0,0,0-2.63-.33,14.8,14.8,0,0,1-6.45-1.38,7.09,7.09,0,0,0,1.83-1.39,4.4,4.4,0,0,0,1.11-4.41,1,1,0,0,0-.57-.65c-.46-.12-.84.34-1.15.71a3.78,3.78,0,0,1-3.5,1.63,6.26,6.26,0,0,1-2.69-.69l-.09-.1-1.11-1h0c-2.72-2.51-5-4.24-7.41-5.1a23.81,23.81,0,0,0-12.72-.54c-3.53,1.06-6.62,4.07-7,7.73-2.06-1.62-5.06-1.49-7.45-.43l-.06,0c-2.68,1.06-4.11,4-4.81,6.76,0,.16-.07.31-.11.46a10.54,10.54,0,0,1-3.52,3.69c-.25.16-.54.36-.57.66s.24.54.49.71a5.44,5.44,0,0,0,2.23.83,12.2,12.2,0,0,1-.83,1.93c-.29.53-.63,1.17-.34,1.7a1.13,1.13,0,0,0,1.21.47,3.27,3.27,0,0,0,1.24-.61c-.28.73-.55,1.47-.83,2.2a6.51,6.51,0,0,0,2.94-.3c.67,2.56,1.27,7.33,2,9.05,1.86,0,2.3-.25,3.25,0,1.22.35.84,2.51,2.39,1.85.79-.34,1.92-3.42,2.15-4.25a39.85,39.85,0,0,0,1.13-17,12.8,12.8,0,0,1,3.86-3l-.12.11c2.82-1.1,6-2.19,8.78-.94,2.15,1,3.46,3.1,5.1,4.79a14.68,14.68,0,0,0,11,4.87c.51,3.07.81,8.11,1.06,11l2.25-5.86v0c.18-.35.34-.69.48-1l.05-.11h0a17.5,17.5,0,0,1,.75-1.67l0,0a1.81,1.81,0,0,0,2.55-2.51,4,4,0,0,0-.91-.84,2.85,2.85,0,0,0,2.74.61,2.23,2.23,0,0,0,1.5-2.27,1.89,1.89,0,0,0-1.18-1.48,6.42,6.42,0,0,0,3.62-.94A1.87,1.87,0,0,0,159.73,126.7Z" style="fill:#263238"></path><path d="M119.81,121.26a9.29,9.29,0,0,0-1,1,7.29,7.29,0,0,0-1.45,3.45,12.73,12.73,0,0,0-.17,2.61c0,.94.14,1.95.25,3a27.55,27.55,0,0,1,.2,3.35,12,12,0,0,1-.17,1.78,3.69,3.69,0,0,1-.66,1.74,1.55,1.55,0,0,1-1.43.54,2.27,2.27,0,0,1-1.32-.69,5.2,5.2,0,0,1-1.08-2.56l.21,0a8.41,8.41,0,0,1-1.16,2.18,3,3,0,0,1-2,1.16,1.91,1.91,0,0,1-1.06-.15,1.63,1.63,0,0,1-.74-.68,1.82,1.82,0,0,1-.25-.9,1.3,1.3,0,0,1,.3-.81l.11.1a6.63,6.63,0,0,1-2.14,1.73,4.68,4.68,0,0,1-.67.28c-.16.06-.24.08-.24.07l.23-.1c.15-.07.37-.17.65-.32a6.91,6.91,0,0,0,2.06-1.75l.11.09a1.3,1.3,0,0,0,0,1.52,1.5,1.5,0,0,0,.67.6,1.8,1.8,0,0,0,1,.13,2.89,2.89,0,0,0,1.81-1.1A8.35,8.35,0,0,0,113,135.4l.14-.33.08.35a5,5,0,0,0,1,2.45,2,2,0,0,0,1.18.61,1.29,1.29,0,0,0,1.22-.45,3.55,3.55,0,0,0,.61-1.63,11.49,11.49,0,0,0,.16-1.74,27.43,27.43,0,0,0-.18-3.33c-.1-1.06-.21-2.07-.23-3a13.69,13.69,0,0,1,.2-2.64,7.06,7.06,0,0,1,1.55-3.48A4,4,0,0,1,119.81,121.26Z" style="fill:#455a64"></path><path d="M151.82,130.08s0,0-.08.08l-.24.19a2.89,2.89,0,0,1-.43.29,4.72,4.72,0,0,1-.61.35,9,9,0,0,1-4.35.95,11.66,11.66,0,0,1-6.26-2.06,20,20,0,0,1-5.52-5.93c-.79-1.21-1.44-2.46-2.16-3.61a13.45,13.45,0,0,0-2.39-3,6.91,6.91,0,0,0-3-1.68,4.9,4.9,0,0,0-1.56-.13,5.7,5.7,0,0,0-1.41.33,6,6,0,0,0-2.09,1.36,5.77,5.77,0,0,0-1.1,1.54,6.64,6.64,0,0,0-.47,1.55s0,0,0-.11,0-.18,0-.31a4.75,4.75,0,0,1,.35-1.17,5.76,5.76,0,0,1,1.09-1.6,5.92,5.92,0,0,1,2.12-1.42,5.48,5.48,0,0,1,1.46-.35,5.27,5.27,0,0,1,1.62.11,7.14,7.14,0,0,1,3.11,1.72,13.35,13.35,0,0,1,2.45,3.07c.72,1.16,1.38,2.4,2.16,3.6A20.22,20.22,0,0,0,140,129.7a11.54,11.54,0,0,0,6.14,2.07,9.11,9.11,0,0,0,4.31-.86A14.27,14.27,0,0,0,151.82,130.08Z" style="fill:#455a64"></path><path d="M152.59,125.55s-.11.11-.35.27a7.27,7.27,0,0,1-1.07.59,10.21,10.21,0,0,1-1.7.63,12.64,12.64,0,0,1-2.19.37,12.34,12.34,0,0,1-2.22-.07,11,11,0,0,1-1.77-.39,8.91,8.91,0,0,1-1.14-.44,1.81,1.81,0,0,1-.39-.22s.6.23,1.58.49a11.33,11.33,0,0,0,1.75.34,12.83,12.83,0,0,0,2.17,0,14.67,14.67,0,0,0,2.15-.34,13.81,13.81,0,0,0,1.69-.57C152,125.86,152.57,125.51,152.59,125.55Z" style="fill:#455a64"></path><path d="M129.18,155.22a23.35,23.35,0,0,1,5.46,1.42l0,0c-.15,1.28-.45,2.69-1.5,3.42a2.7,2.7,0,0,1-2.72.12,3,3,0,0,1-1.62-2.09A6.42,6.42,0,0,1,129.18,155.22Z" style="fill:#ff9a6c"></path><path d="M132.05,160.37a3,3,0,0,1-1.75-.4,2.76,2.76,0,0,1-1.14-1.5,4.43,4.43,0,0,1,0-2.37,5.11,5.11,0,0,1,.17-.57s0,0,0,0l.29.07,1.19.29,2,.45a7.91,7.91,0,0,0,1.89.31,7.27,7.27,0,0,0-1.81-.64l-2-.56-1.18-.31a2.14,2.14,0,0,0-.34-.08.49.49,0,0,0-.51.24,3.17,3.17,0,0,0-.23.7,4.6,4.6,0,0,0,.05,2.63,3,3,0,0,0,1.39,1.65,2.35,2.35,0,0,0,1.42.29C131.9,160.5,132.06,160.39,132.05,160.37Z" style="fill:#263238"></path><path d="M85.35,184.31s-26.39,9.3-34,13.14c-6,3-9.74,13.88-.57,18.41,6.84,3.38,43.88-3.08,43.88-3.08Z" style="fill:#ffbf9d"></path><path d="M154.26,439.71l-.74,19.49s19.56,7.29,19.78,10.91L135.46,470l-.1-30.41Z" style="fill:#455a64"></path><path d="M141.82,457.54a1.54,1.54,0,0,0-1.07,1.76,1.49,1.49,0,0,0,1.74,1.08,1.62,1.62,0,0,0,1.12-1.87,1.53,1.53,0,0,0-1.93-.92" style="fill:#e0e0e0"></path><path d="M135.46,470l.11-3.07,36.24,1.22s1.68.73,1.49,1.92Z" style="fill:#263238"></path><path d="M154.14,459c0,.18-.94.27-1.85.86s-1.39,1.37-1.56,1.29.11-1.14,1.22-1.83S154.18,458.84,154.14,459Z" style="fill:#fff"></path><path d="M158.1,460.66c0,.18-.76.49-1.39,1.27s-.81,1.61-1,1.6-.3-1,.5-2S158.1,460.48,158.1,460.66Z" style="fill:#fff"></path><path d="M160.35,465.41c-.17,0-.43-.88.05-1.89s1.34-1.42,1.42-1.26-.46.69-.84,1.53S160.53,465.39,160.35,465.41Z" style="fill:#fff"></path><path d="M153.81,454.55c-.08.17-.92-.09-2,0s-1.86.4-2,.24.68-.82,1.91-.88S153.9,454.41,153.81,454.55Z" style="fill:#fff"></path><path d="M108.86,440.92l-1,23.57,4.55,18.88a2.41,2.41,0,0,1-2,2.95h0a2.4,2.4,0,0,1-2.11-.67c-3.52-3.53-16.07-16.75-16.13-18-.08-2-.66-25.23-.66-25.23Z" style="fill:#455a64"></path><path d="M110.41,486.32,92.08,465.76l0,1a3.87,3.87,0,0,0,.81,2.38c1.46,1.79,5.6,6.65,15.36,16.51a2.39,2.39,0,0,0,2.18.67Z" style="fill:#263238"></path><g style="opacity:0.6000000000000001"><path d="M97.09,458.25a1.48,1.48,0,0,1,.36,1.92,1.41,1.41,0,0,1-1.9.38,1.55,1.55,0,0,1-.37-2,1.46,1.46,0,0,1,2-.17" style="fill:#fff"></path></g><path d="M105.24,475.9c.14.07.69-1.16,2.11-1.79a7.18,7.18,0,0,1,2.73-.46c0-.06-.27-.25-.82-.34a3.85,3.85,0,0,0-3.74,1.74C105.23,475.53,105.19,475.88,105.24,475.9Z" style="fill:#fff"></path><path d="M106.86,479.1a17.78,17.78,0,0,1,2.11-1,21.33,21.33,0,0,1,2.31-.25,2.7,2.7,0,0,0-2.45-.25C107.43,478,106.73,479,106.86,479.1Z" style="fill:#fff"></path><path d="M102.2,471.78a26.22,26.22,0,0,1,3.16-1.71,24.53,24.53,0,0,1,3.52-.74,6.61,6.61,0,0,0-6.68,2.45Z" style="fill:#fff"></path><path d="M101.92,464.59c.06.14,1.38-.37,3.08-.4s3,.42,3.08.27a4.67,4.67,0,0,0-3.09-.78A4.72,4.72,0,0,0,101.92,464.59Z" style="fill:#fff"></path><path d="M102.06,457.66a11.7,11.7,0,0,1,3.18-.49,12,12,0,0,1,3.12.85s-.22-.35-.75-.68a5.23,5.23,0,0,0-2.34-.69,5.11,5.11,0,0,0-2.39.43C102.31,457.34,102,457.61,102.06,457.66Z" style="fill:#fff"></path><path d="M105.23,455.85a2.08,2.08,0,0,0,0-.9,6.07,6.07,0,0,0-.66-2.35,2.72,2.72,0,0,0-1.15-1.34,1,1,0,0,0-1.1.2,1.54,1.54,0,0,0-.39,1.05,3.41,3.41,0,0,0,2.92,3.23,4,4,0,0,0,3.94-2,1.33,1.33,0,0,0,.09-1.14,1,1,0,0,0-1-.53,3.41,3.41,0,0,0-1.57.78,7,7,0,0,0-1.65,1.8,2.34,2.34,0,0,0-.38.8,11.6,11.6,0,0,1,2.25-2.31,3.28,3.28,0,0,1,1.39-.64.5.5,0,0,1,.53.29.88.88,0,0,1-.1.74,3.53,3.53,0,0,1-3.43,1.69,3,3,0,0,1-2.52-2.71,1.13,1.13,0,0,1,.24-.75.55.55,0,0,1,.61-.11,2.49,2.49,0,0,1,1,1.11A9,9,0,0,1,105.23,455.85Z" style="fill:#fff"></path><path d="M165.9,276.7a83.59,83.59,0,0,1,2.87,24.54c-.18,5.25-11.7,150.73-11.7,150.73l-23.83,1,.93-136.31-1.94.5s-10.55,58.57-11.21,68c-.6,8.48-10.61,72.3-10.61,72.3L87.69,458l6.1-82.82L96.43,297l2.43-22.82Z" style="fill:#263238"></path><path d="M129.82,303a5,5,0,0,0,1,.52,11.51,11.51,0,0,0,3,.91,6.35,6.35,0,0,0,2.2-.08,4.48,4.48,0,0,0,2.25-1.2,5.46,5.46,0,0,0,1.29-2.49c.24-.94.36-1.91.52-2.9.59-4,.95-7.56,1.14-10.18.1-1.31.15-2.36.18-3.1a5.33,5.33,0,0,0,0-1.14,4.5,4.5,0,0,0-.18,1.13l-.33,3.08c-.28,2.6-.7,6.19-1.29,10.14-.31,1.95-.48,3.93-1.64,5.14a5,5,0,0,1-4.07,1.24,12.84,12.84,0,0,1-3-.74A6.45,6.45,0,0,0,129.82,303Z" style="fill:#455a64"></path><path d="M136.21,284.2s-.16-.12-.49-.13a2.1,2.1,0,0,0-1.32.49,2.4,2.4,0,0,0-.93,1.88,2.37,2.37,0,0,0,4.09,1.34,2.41,2.41,0,0,0,.37-2.07,2.21,2.21,0,0,0-.77-1.17c-.28-.19-.47-.21-.48-.19a2.66,2.66,0,0,1,.9,1.44,2.08,2.08,0,0,1-.38,1.7,1.77,1.77,0,0,1-1.95.45,1.79,1.79,0,0,1-1.31-1.52,2.09,2.09,0,0,1,.69-1.59A2.67,2.67,0,0,1,136.21,284.2Z" style="fill:#455a64"></path><path d="M98.86,295.61s.28.07.81.09a14,14,0,0,0,2.24-.07,21.55,21.55,0,0,0,13.14-6.2,14.72,14.72,0,0,0,1.48-1.68,3.35,3.35,0,0,0,.45-.69c-.07-.06-.8.85-2.17,2.11a24.76,24.76,0,0,1-6,4,24.41,24.41,0,0,1-6.93,2.07C100,295.54,98.86,295.52,98.86,295.61Z" style="fill:#455a64"></path><path d="M149.85,180.65l-11.95-1.92s-.63,4.9-8.74,5.06c-9.34.19-15.88-7.64-15.88-7.64l-20.35,4.1-2.32.95-3.39,1.09,10.51,68.26,1.21,18.63a13,13,0,0,0-2,6.25c0,3.24-.13,5.39-.13,5.39,24.89,6.84,49.59,12.76,72.32,6.14,0,0-.57-11-1.88-14s-1.07-3.27-1.07-3.27l-3.73-32.62-3.58-31.73Z" style="fill:#FF725E"></path><path d="M149.85,180.65s5.91,1.76,9.33,5.4,18.16,21,18.16,21l-15.93,21.79L154,218.74Z" style="fill:#FF725E"></path><path d="M163.72,245.43q-3.34-26.75-6.68-53.49" style="fill:#fafafa"></path><path d="M157,191.94c.13,0,1.74,11.95,3.58,26.72s3.23,26.75,3.1,26.77-1.74-12-3.58-26.72S156.9,192,157,191.94Z" style="fill:#263238"></path><polygon points="87.22 182.29 66.18 190.91 73.95 212.65 94.64 215.93 87.22 182.29" style="fill:#FF725E"></polygon><path d="M90.61,195.79c.14,0,1.16,8.47,2.28,18.94s1.92,19,1.77,19-1.16-8.47-2.28-18.94S90.46,195.81,90.61,195.79Z" style="fill:#263238"></path><path d="M121.09,230.25A144.73,144.73,0,0,0,110.48,218a23.47,23.47,0,0,0-7.6-4.31v-.13s-34.32-12.26-36.7-13.47L50.76,215.86c5.37,1.49,41.81,10.27,50.8,12.24,1.57,1.83,3.15,3.34,3.15,3.34l2.61,6.13a25.29,25.29,0,0,1,.12,4.64c-.19,2.39,1.75,1.46,1.75,1.46a33.23,33.23,0,0,0,0,3.63v.07a1.5,1.5,0,0,0,2.92.27l1.77-5.54s-.23,5-.32,7.84a2.7,2.7,0,0,0,.23,1.27,1.74,1.74,0,0,0,3.26-.38l2.08-8.75-.67-5.37,1.74,4.9a33.56,33.56,0,0,1,.38,6.3c0,1.47.46,2.1,1.07,2.32a1.69,1.69,0,0,0,2.18-1.52l.67-8.12S121.44,230.86,121.09,230.25Z" style="fill:#ffbf9d"></path><path d="M64,199.47a10.72,10.72,0,0,1,2.53.52,61,61,0,0,1,5.87,2c2.25.9,4.26,1.76,5.72,2.38a13.58,13.58,0,0,1,2.33,1.08,11,11,0,0,1-2.47-.74c-1.49-.53-3.53-1.34-5.77-2.23s-4.29-1.66-5.79-2.17A16.46,16.46,0,0,1,64,199.47Z" style="fill:#ff9a6c"></path></g></svg>
